<?xml version="1.0" encoding="UTF-8" standalone="no"?>
<!-- Created with Inkscape (http://www.inkscape.org/) -->

<svg
   width="32mm"
   height="32mm"
   viewBox="0 0 32 32"
   version="1.1"
   id="svg1"
   xmlns="http://www.w3.org/2000/svg"
   xmlns:svg="http://www.w3.org/2000/svg">
  <defs
     id="defs1" />
  <g
     id="layer1">
    <rect
       style="fill:#000000;stroke-width:0.264583"
       id="rect1"
       width="32"
       height="32"
       x="0"
       y="8.8817842e-16"
       rx="5" />
    <g
       id="g4"
       transform="matrix(0.83333333,0,0,0.83333333,-0.66666658,6)">
      <path
         id="path3"
         style="fill:#ffffff;stroke-width:0.171133"
         transform="rotate(90)"
         d="m 16,-20 a 8,8 0 0 1 -4,6.928203 8,8 0 0 1 -8.0000002,0 A 8,8 0 0 1 0,-20" />
      <path
         id="path3-6"
         style="fill:#ffffff;stroke-width:0.171133"
         transform="matrix(0,1,1,0,0,0)"
         d="m 24,20 a 8,8 0 0 1 -4,6.928203 8,8 0 0 1 -8,0 A 8,8 0 0 1 8,20" />
    </g>
  </g>
</svg>
